<svg xmlns="http://www.w3.org/2000/svg" xmlns:xlink="http://www.w3.org/1999/xlink" width="1080" zoomAndPan="magnify" viewBox="0 0 810 809.999993" height="1080" preserveAspectRatio="xMidYMid meet" version="1.0"><path fill="#20af24" d="M 405 0 C 627.753906 0 810 182.246094 810 405 C 810 627.753906 627.753906 810 405 810 C 182.246094 810 0 627.753906 0 405 C 0 182.246094 182.246094 0 405 0 Z M 405 44.859375 C 206.921875 44.859375 44.859375 206.921875 44.859375 405 C 44.859375 603.078125 206.921875 765.140625 405 765.140625 C 603.078125 765.140625 765.140625 603.078125 765.140625 405 C 765.140625 206.921875 603.078125 44.859375 405 44.859375 " fill-opacity="1" fill-rule="evenodd"/><path fill="#20af24" d="M 323.171875 467.09375 L 556.464844 233.800781 C 576.542969 213.714844 609.117188 213.714844 629.203125 233.800781 C 649.28125 253.878906 649.28125 286.453125 629.203125 306.535156 L 359.804688 575.929688 C 359.714844 576.023438 359.628906 576.113281 359.535156 576.199219 C 339.457031 596.285156 306.878906 596.285156 286.800781 576.199219 L 277.097656 566.5 L 277.105469 566.5 L 180.796875 470.199219 C 160.71875 450.113281 160.71875 417.539062 180.796875 397.460938 C 200.882812 377.378906 233.457031 377.378906 253.535156 397.460938 L 323.171875 467.09375 " fill-opacity="1" fill-rule="evenodd"/></svg>