<svg xmlns="http://www.w3.org/2000/svg" xmlns:xlink="http://www.w3.org/1999/xlink" width="256" zoomAndPan="magnify" viewBox="0 0 192 191.999996" height="256" preserveAspectRatio="xMidYMid meet" version="1.0"><defs><clipPath id="41be4e57b0"><path d="M 96 0 C 42.980469 0 0 42.980469 0 96 C 0 149.019531 42.980469 192 96 192 C 149.019531 192 192 149.019531 192 96 C 192 42.980469 149.019531 0 96 0 Z M 96 0 " clip-rule="nonzero"/></clipPath><clipPath id="3dbc931984"><path d="M 14.695312 77.851562 L 51 77.851562 L 51 114.171875 L 14.695312 114.171875 Z M 14.695312 77.851562 " clip-rule="nonzero"/></clipPath><clipPath id="333e86a5de"><path d="M 123.574219 23.414062 L 159.894531 23.414062 L 159.894531 59.730469 L 123.574219 59.730469 Z M 123.574219 23.414062 " clip-rule="nonzero"/></clipPath><clipPath id="dad700ad26"><path d="M 123.574219 132.292969 L 159.894531 132.292969 L 159.894531 168.609375 L 123.574219 168.609375 Z M 123.574219 132.292969 " clip-rule="nonzero"/></clipPath><clipPath id="e83d516ebe"><path d="M 53 44 L 119 44 L 119 88 L 53 88 Z M 53 44 " clip-rule="nonzero"/></clipPath><clipPath id="2161237af5"><path d="M 50.988281 77.589844 L 113.847656 41.558594 L 121.214844 54.410156 L 58.355469 90.441406 Z M 50.988281 77.589844 " clip-rule="nonzero"/></clipPath><clipPath id="7346bc2e84"><path d="M 57.414062 73.90625 L 107.421875 45.242188 C 109.125 44.265625 111.148438 44.003906 113.042969 44.519531 C 114.941406 45.03125 116.554688 46.277344 117.53125 47.984375 C 118.507812 49.6875 118.769531 51.710938 118.253906 53.605469 C 117.738281 55.503906 116.492188 57.117188 114.789062 58.09375 L 64.78125 86.757812 C 63.078125 87.734375 61.054688 87.996094 59.15625 87.480469 C 57.261719 86.964844 55.648438 85.71875 54.671875 84.015625 C 53.695312 82.3125 53.433594 80.289062 53.949219 78.394531 C 54.460938 76.496094 55.710938 74.882812 57.414062 73.90625 Z M 57.414062 73.90625 " clip-rule="nonzero"/></clipPath><clipPath id="0485d53a81"><path d="M 53 100 L 119 100 L 119 145 L 53 145 Z M 53 100 " clip-rule="nonzero"/></clipPath><clipPath id="b797c7ad5e"><path d="M 58.429688 97.90625 L 121.214844 134.394531 L 113.769531 147.203125 L 50.988281 110.714844 Z M 58.429688 97.90625 " clip-rule="nonzero"/></clipPath><clipPath id="04ed71aa53"><path d="M 64.835938 101.628906 L 114.808594 130.675781 C 116.507812 131.660156 117.746094 133.28125 118.25 135.179688 C 118.75 137.082031 118.480469 139.101562 117.492188 140.800781 C 116.503906 142.5 114.882812 143.734375 112.984375 144.238281 C 111.085938 144.742188 109.066406 144.46875 107.367188 143.480469 L 57.390625 114.4375 C 55.691406 113.449219 54.457031 111.828125 53.953125 109.929688 C 53.449219 108.03125 53.722656 106.007812 54.707031 104.308594 C 55.695312 102.613281 57.316406 101.375 59.214844 100.871094 C 61.117188 100.367188 63.136719 100.640625 64.835938 101.628906 Z M 64.835938 101.628906 " clip-rule="nonzero"/></clipPath></defs><g clip-path="url(#41be4e57b0)"><rect x="-19.2" width="230.4" fill="#ffffff" y="-19.2" height="230.399995" fill-opacity="1"/></g><path fill="#fefefe" d="M 47.492188 98.824219 L 47.390625 98.878906 C 47.285156 98.929688 47.164062 98.886719 47.109375 98.785156 C 47.058594 98.683594 47.101562 98.558594 47.203125 98.507812 L 47.308594 98.453125 C 47.410156 98.402344 47.535156 98.445312 47.585938 98.546875 C 47.636719 98.648438 47.59375 98.773438 47.492188 98.824219 Z M 47.492188 98.824219 " fill-opacity="1" fill-rule="nonzero"/><g clip-path="url(#3dbc931984)"><path fill="#20af24" d="M 50.976562 95.992188 C 50.976562 106.015625 42.851562 114.136719 32.832031 114.136719 C 22.808594 114.136719 14.683594 106.015625 14.683594 95.992188 C 14.683594 85.972656 22.808594 77.847656 32.832031 77.847656 C 42.851562 77.847656 50.976562 85.972656 50.976562 95.992188 M 39.351562 95.992188 C 39.351562 92.394531 36.429688 89.472656 32.832031 89.472656 C 29.230469 89.472656 26.3125 92.394531 26.3125 95.992188 C 26.3125 99.59375 29.230469 102.511719 32.832031 102.511719 C 36.429688 102.511719 39.351562 99.59375 39.351562 95.992188 Z M 39.351562 95.992188 " fill-opacity="1" fill-rule="nonzero"/></g><path fill="#fefefe" d="M 156.375 44.382812 L 156.269531 44.4375 C 156.167969 44.488281 156.042969 44.445312 155.992188 44.34375 C 155.941406 44.242188 155.984375 44.117188 156.085938 44.066406 L 156.1875 44.015625 C 156.292969 43.960938 156.414062 44.003906 156.46875 44.105469 C 156.519531 44.207031 156.476562 44.332031 156.375 44.382812 Z M 156.375 44.382812 " fill-opacity="1" fill-rule="nonzero"/><g clip-path="url(#333e86a5de)"><path fill="#20af24" d="M 159.859375 41.550781 C 159.859375 51.574219 151.734375 59.699219 141.710938 59.699219 C 131.691406 59.699219 123.566406 51.574219 123.566406 41.550781 C 123.566406 31.53125 131.691406 23.40625 141.710938 23.40625 C 151.734375 23.40625 159.859375 31.53125 159.859375 41.550781 M 148.230469 41.550781 C 148.230469 37.953125 145.3125 35.03125 141.710938 35.03125 C 138.113281 35.03125 135.191406 37.953125 135.191406 41.550781 C 135.191406 45.152344 138.113281 48.070312 141.710938 48.070312 C 145.3125 48.070312 148.230469 45.152344 148.230469 41.550781 Z M 148.230469 41.550781 " fill-opacity="1" fill-rule="nonzero"/></g><path fill="#fefefe" d="M 156.375 153.265625 L 156.269531 153.316406 C 156.167969 153.367188 156.042969 153.328125 155.992188 153.226562 C 155.941406 153.121094 155.984375 153 156.085938 152.949219 L 156.1875 152.894531 C 156.292969 152.84375 156.414062 152.886719 156.46875 152.988281 C 156.519531 153.089844 156.476562 153.214844 156.375 153.265625 Z M 156.375 153.265625 " fill-opacity="1" fill-rule="nonzero"/><g clip-path="url(#dad700ad26)"><path fill="#20af24" d="M 159.859375 150.433594 C 159.859375 160.457031 151.734375 168.578125 141.710938 168.578125 C 131.691406 168.578125 123.566406 160.457031 123.566406 150.433594 C 123.566406 140.414062 131.691406 132.289062 141.710938 132.289062 C 151.734375 132.289062 159.859375 140.414062 159.859375 150.433594 M 148.230469 150.433594 C 148.230469 146.832031 145.3125 143.914062 141.710938 143.914062 C 138.113281 143.914062 135.191406 146.832031 135.191406 150.433594 C 135.191406 154.035156 138.113281 156.953125 141.710938 156.953125 C 145.3125 156.953125 148.230469 154.035156 148.230469 150.433594 Z M 148.230469 150.433594 " fill-opacity="1" fill-rule="nonzero"/></g><g clip-path="url(#e83d516ebe)"><g clip-path="url(#2161237af5)"><g clip-path="url(#7346bc2e84)"><path fill="#20af24" d="M 50.988281 77.589844 L 113.847656 41.558594 L 121.214844 54.410156 L 58.355469 90.441406 Z M 50.988281 77.589844 " fill-opacity="1" fill-rule="nonzero"/></g></g></g><g clip-path="url(#0485d53a81)"><g clip-path="url(#b797c7ad5e)"><g clip-path="url(#04ed71aa53)"><path fill="#20af24" d="M 58.429688 97.90625 L 121.214844 134.394531 L 113.769531 147.203125 L 50.988281 110.714844 Z M 58.429688 97.90625 " fill-opacity="1" fill-rule="nonzero"/></g></g></g></svg>