<svg xmlns="http://www.w3.org/2000/svg" xmlns:xlink="http://www.w3.org/1999/xlink" width="1500" zoomAndPan="magnify" viewBox="0 0 1125 251.999989" height="336" preserveAspectRatio="xMidYMid meet" version="1.0"><defs><g/><clipPath id="2a3fbff3b6"><path d="M 0 99.355469 L 55.277344 99.355469 L 55.277344 154.632812 L 0 154.632812 Z M 0 99.355469 " clip-rule="nonzero"/></clipPath><clipPath id="2efce1661d"><path d="M 165.113281 16.796875 L 220.390625 16.796875 L 220.390625 72 L 165.113281 72 Z M 165.113281 16.796875 " clip-rule="nonzero"/></clipPath><clipPath id="f16efa403c"><path d="M 165.113281 181.910156 L 220.390625 181.910156 L 220.390625 237 L 165.113281 237 Z M 165.113281 181.910156 " clip-rule="nonzero"/></clipPath><clipPath id="b765594387"><path d="M 59 48 L 158 48 L 158 115 L 59 115 Z M 59 48 " clip-rule="nonzero"/></clipPath><clipPath id="e4623f7762"><path d="M 55.039062 98.953125 L 150.363281 44.3125 L 161.535156 63.804688 L 66.210938 118.445312 Z M 55.039062 98.953125 " clip-rule="nonzero"/></clipPath><clipPath id="fb83098bb8"><path d="M 64.785156 93.367188 L 140.617188 49.898438 C 143.203125 48.417969 146.269531 48.023438 149.144531 48.804688 C 152.019531 49.585938 154.46875 51.472656 155.949219 54.058594 C 157.429688 56.644531 157.824219 59.710938 157.042969 62.585938 C 156.265625 65.460938 154.375 67.90625 151.789062 69.390625 L 75.957031 112.859375 C 73.371094 114.339844 70.304688 114.734375 67.429688 113.953125 C 64.554688 113.175781 62.105469 111.285156 60.625 108.699219 C 59.144531 106.117188 58.75 103.046875 59.53125 100.171875 C 60.308594 97.296875 62.199219 94.851562 64.785156 93.367188 Z M 64.785156 93.367188 " clip-rule="nonzero"/></clipPath><clipPath id="48d4c197c7"><path d="M 59 133 L 158 133 L 158 201 L 59 201 Z M 59 133 " clip-rule="nonzero"/></clipPath><clipPath id="dccb248871"><path d="M 66.324219 129.761719 L 161.53125 185.097656 L 150.242188 204.519531 L 55.035156 149.183594 Z M 66.324219 129.761719 " clip-rule="nonzero"/></clipPath><clipPath id="cd27514d1e"><path d="M 76.035156 135.40625 L 151.820312 179.453125 C 154.394531 180.949219 156.269531 183.410156 157.035156 186.289062 C 157.796875 189.167969 157.382812 192.234375 155.886719 194.808594 C 154.390625 197.386719 151.929688 199.261719 149.050781 200.023438 C 146.171875 200.785156 143.105469 200.375 140.53125 198.875 L 64.746094 154.828125 C 62.171875 153.332031 60.296875 150.875 59.53125 147.996094 C 58.769531 145.113281 59.183594 142.050781 60.679688 139.472656 C 62.175781 136.898438 64.636719 135.023438 67.515625 134.261719 C 70.394531 133.496094 73.460938 133.910156 76.035156 135.40625 Z M 76.035156 135.40625 " clip-rule="nonzero"/></clipPath></defs><path fill="#fefefe" d="M 49.738281 131.15625 L 49.578125 131.234375 C 49.425781 131.3125 49.234375 131.25 49.160156 131.09375 C 49.082031 130.941406 49.144531 130.75 49.300781 130.675781 L 49.457031 130.59375 C 49.609375 130.519531 49.800781 130.582031 49.878906 130.734375 C 49.957031 130.890625 49.890625 131.078125 49.738281 131.15625 Z M 49.738281 131.15625 " fill-opacity="1" fill-rule="nonzero"/><g clip-path="url(#2a3fbff3b6)"><path fill="#ffffff" d="M 55.019531 126.863281 C 55.019531 142.058594 42.699219 154.378906 27.503906 154.378906 C 12.308594 154.378906 -0.0117188 142.058594 -0.0117188 126.863281 C -0.0117188 111.667969 12.308594 99.347656 27.503906 99.347656 C 42.699219 99.347656 55.019531 111.667969 55.019531 126.863281 M 37.390625 126.863281 C 37.390625 121.402344 32.964844 116.976562 27.503906 116.976562 C 22.042969 116.976562 17.617188 121.402344 17.617188 126.863281 C 17.617188 132.324219 22.042969 136.75 27.503906 136.75 C 32.964844 136.75 37.390625 132.324219 37.390625 126.863281 Z M 37.390625 126.863281 " fill-opacity="1" fill-rule="nonzero"/></g><path fill="#fefefe" d="M 214.851562 48.601562 L 214.695312 48.679688 C 214.539062 48.757812 214.351562 48.695312 214.273438 48.539062 C 214.195312 48.382812 214.257812 48.195312 214.414062 48.117188 L 214.570312 48.039062 C 214.726562 47.960938 214.914062 48.023438 214.992188 48.179688 C 215.070312 48.335938 215.007812 48.523438 214.851562 48.601562 Z M 214.851562 48.601562 " fill-opacity="1" fill-rule="nonzero"/><g clip-path="url(#2efce1661d)"><path fill="#ffffff" d="M 220.132812 44.304688 C 220.132812 59.503906 207.8125 71.820312 192.617188 71.820312 C 177.421875 71.820312 165.101562 59.503906 165.101562 44.304688 C 165.101562 29.109375 177.421875 16.789062 192.617188 16.789062 C 207.8125 16.789062 220.132812 29.109375 220.132812 44.304688 M 202.503906 44.304688 C 202.503906 38.847656 198.078125 34.417969 192.617188 34.417969 C 187.15625 34.417969 182.730469 38.847656 182.730469 44.304688 C 182.730469 49.765625 187.15625 54.191406 192.617188 54.191406 C 198.078125 54.191406 202.503906 49.765625 202.503906 44.304688 Z M 202.503906 44.304688 " fill-opacity="1" fill-rule="nonzero"/></g><path fill="#fefefe" d="M 214.851562 213.714844 L 214.695312 213.792969 C 214.539062 213.871094 214.351562 213.808594 214.273438 213.652344 C 214.195312 213.496094 214.257812 213.308594 214.414062 213.230469 L 214.570312 213.152344 C 214.726562 213.074219 214.914062 213.136719 214.992188 213.292969 C 215.070312 213.449219 215.007812 213.636719 214.851562 213.714844 Z M 214.851562 213.714844 " fill-opacity="1" fill-rule="nonzero"/><g clip-path="url(#f16efa403c)"><path fill="#ffffff" d="M 220.132812 209.417969 C 220.132812 224.617188 207.8125 236.9375 192.617188 236.9375 C 177.421875 236.9375 165.101562 224.617188 165.101562 209.417969 C 165.101562 194.222656 177.421875 181.902344 192.617188 181.902344 C 207.8125 181.902344 220.132812 194.222656 220.132812 209.417969 M 202.503906 209.417969 C 202.503906 203.960938 198.078125 199.535156 192.617188 199.535156 C 187.15625 199.535156 182.730469 203.960938 182.730469 209.417969 C 182.730469 214.878906 187.15625 219.304688 192.617188 219.304688 C 198.078125 219.304688 202.503906 214.878906 202.503906 209.417969 Z M 202.503906 209.417969 " fill-opacity="1" fill-rule="nonzero"/></g><g clip-path="url(#b765594387)"><g clip-path="url(#e4623f7762)"><g clip-path="url(#fb83098bb8)"><path fill="#fefefe" d="M 55.039062 98.953125 L 150.363281 44.3125 L 161.535156 63.804688 L 66.210938 118.445312 Z M 55.039062 98.953125 " fill-opacity="1" fill-rule="nonzero"/></g></g></g><g clip-path="url(#48d4c197c7)"><g clip-path="url(#dccb248871)"><g clip-path="url(#cd27514d1e)"><path fill="#fefefe" d="M 66.324219 129.761719 L 161.53125 185.097656 L 150.242188 204.519531 L 55.035156 149.183594 Z M 66.324219 129.761719 " fill-opacity="1" fill-rule="nonzero"/></g></g></g><g fill="#ffffff" fill-opacity="1"><g transform="translate(234.280634, 155.419162)"><g><path d="M 65.234375 -52.109375 C 70.691406 -51.128906 75.316406 -48.253906 79.109375 -43.484375 C 82.898438 -38.722656 84.796875 -33.328125 84.796875 -27.296875 C 84.796875 -22.140625 83.457031 -17.492188 80.78125 -13.359375 C 78.101562 -9.222656 74.234375 -5.960938 69.171875 -3.578125 C 64.117188 -1.191406 58.234375 0 51.515625 0 L 10.953125 0 L 10.953125 -101.4375 L 49.625 -101.4375 C 56.53125 -101.4375 62.460938 -100.269531 67.421875 -97.9375 C 72.390625 -95.601562 76.140625 -92.460938 78.671875 -88.515625 C 81.203125 -84.578125 82.46875 -80.175781 82.46875 -75.3125 C 82.46875 -69.46875 80.910156 -64.597656 77.796875 -60.703125 C 74.679688 -56.816406 70.492188 -53.953125 65.234375 -52.109375 Z M 27.578125 -58.8125 L 48.171875 -58.8125 C 53.617188 -58.8125 57.875 -60.050781 60.9375 -62.53125 C 64 -65.019531 65.53125 -68.597656 65.53125 -73.265625 C 65.53125 -77.835938 64 -81.410156 60.9375 -83.984375 C 57.875 -86.566406 53.617188 -87.859375 48.171875 -87.859375 L 27.578125 -87.859375 Z M 50.0625 -13.578125 C 55.707031 -13.578125 60.132812 -14.9375 63.34375 -17.65625 C 66.550781 -20.382812 68.15625 -24.179688 68.15625 -29.046875 C 68.15625 -34.003906 66.453125 -37.941406 63.046875 -40.859375 C 59.640625 -43.785156 55.117188 -45.25 49.484375 -45.25 L 27.578125 -45.25 L 27.578125 -13.578125 Z M 50.0625 -13.578125 "/></g></g></g><g fill="#ffffff" fill-opacity="1"><g transform="translate(326.227843, 155.419162)"><g><path d="M 19.40625 -91.078125 C 16.394531 -91.078125 13.863281 -92.097656 11.8125 -94.140625 C 9.769531 -96.179688 8.75 -98.710938 8.75 -101.734375 C 8.75 -104.742188 9.769531 -107.269531 11.8125 -109.3125 C 13.863281 -111.363281 16.394531 -112.390625 19.40625 -112.390625 C 22.332031 -112.390625 24.816406 -111.363281 26.859375 -109.3125 C 28.898438 -107.269531 29.921875 -104.742188 29.921875 -101.734375 C 29.921875 -98.710938 28.898438 -96.179688 26.859375 -94.140625 C 24.816406 -92.097656 22.332031 -91.078125 19.40625 -91.078125 Z M 27.578125 -80.421875 L 27.578125 0 L 10.953125 0 L 10.953125 -80.421875 Z M 27.578125 -80.421875 "/></g></g></g><g fill="#ffffff" fill-opacity="1"><g transform="translate(364.758106, 155.419162)"><g><path d="M 51.515625 -81.734375 C 57.847656 -81.734375 63.519531 -80.421875 68.53125 -77.796875 C 73.539062 -75.171875 77.453125 -71.273438 80.265625 -66.109375 C 83.085938 -60.953125 84.5 -54.726562 84.5 -47.4375 L 84.5 0 L 68.015625 0 L 68.015625 -44.953125 C 68.015625 -52.148438 66.210938 -57.671875 62.609375 -61.515625 C 59.015625 -65.359375 54.101562 -67.28125 47.875 -67.28125 C 41.644531 -67.28125 36.703125 -65.359375 33.046875 -61.515625 C 29.398438 -57.671875 27.578125 -52.148438 27.578125 -44.953125 L 27.578125 0 L 10.953125 0 L 10.953125 -80.421875 L 27.578125 -80.421875 L 27.578125 -71.21875 C 30.304688 -74.53125 33.785156 -77.109375 38.015625 -78.953125 C 42.253906 -80.804688 46.753906 -81.734375 51.515625 -81.734375 Z M 51.515625 -81.734375 "/></g></g></g><g fill="#ffffff" fill-opacity="1"><g transform="translate(459.478324, 155.419162)"><g><path d="M 5.40625 -40.578125 C 5.40625 -48.648438 7.082031 -55.800781 10.4375 -62.03125 C 13.789062 -68.257812 18.363281 -73.097656 24.15625 -76.546875 C 29.945312 -80.003906 36.394531 -81.734375 43.5 -81.734375 C 48.75 -81.734375 53.925781 -80.585938 59.03125 -78.296875 C 64.144531 -76.015625 68.207031 -72.976562 71.21875 -69.1875 L 71.21875 -108 L 88.015625 -108 L 88.015625 0 L 71.21875 0 L 71.21875 -12.109375 C 68.5 -8.222656 64.726562 -5.015625 59.90625 -2.484375 C 55.09375 0.046875 49.570312 1.3125 43.34375 1.3125 C 36.34375 1.3125 29.945312 -0.460938 24.15625 -4.015625 C 18.363281 -7.566406 13.789062 -12.523438 10.4375 -18.890625 C 7.082031 -25.265625 5.40625 -32.492188 5.40625 -40.578125 Z M 71.21875 -40.28125 C 71.21875 -45.832031 70.070312 -50.648438 67.78125 -54.734375 C 65.5 -58.816406 62.507812 -61.925781 58.8125 -64.0625 C 55.113281 -66.207031 51.125 -67.28125 46.84375 -67.28125 C 42.5625 -67.28125 38.570312 -66.234375 34.875 -64.140625 C 31.1875 -62.054688 28.195312 -58.992188 25.90625 -54.953125 C 23.625 -50.910156 22.484375 -46.117188 22.484375 -40.578125 C 22.484375 -35.023438 23.625 -30.15625 25.90625 -25.96875 C 28.195312 -21.789062 31.210938 -18.609375 34.953125 -16.421875 C 38.703125 -14.234375 42.664062 -13.140625 46.84375 -13.140625 C 51.125 -13.140625 55.113281 -14.207031 58.8125 -16.34375 C 62.507812 -18.488281 65.5 -21.628906 67.78125 -25.765625 C 70.070312 -29.898438 71.21875 -34.738281 71.21875 -40.28125 Z M 71.21875 -40.28125 "/></g></g></g><g fill="#ffffff" fill-opacity="1"><g transform="translate(558.431045, 155.419162)"><g><path d="M 40.140625 1.3125 C 33.816406 1.3125 28.144531 0.171875 23.125 -2.109375 C 18.113281 -4.398438 14.148438 -7.515625 11.234375 -11.453125 C 8.316406 -15.398438 6.757812 -19.804688 6.5625 -24.671875 L 23.796875 -24.671875 C 24.085938 -21.265625 25.710938 -18.414062 28.671875 -16.125 C 31.640625 -13.84375 35.363281 -12.703125 39.84375 -12.703125 C 44.507812 -12.703125 48.132812 -13.597656 50.71875 -15.390625 C 53.300781 -17.191406 54.59375 -19.503906 54.59375 -22.328125 C 54.59375 -25.347656 53.15625 -27.585938 50.28125 -29.046875 C 47.40625 -30.503906 42.859375 -32.109375 36.640625 -33.859375 C 30.597656 -35.515625 25.679688 -37.117188 21.890625 -38.671875 C 18.097656 -40.234375 14.8125 -42.617188 12.03125 -45.828125 C 9.257812 -49.035156 7.875 -53.269531 7.875 -58.53125 C 7.875 -62.8125 9.140625 -66.726562 11.671875 -70.28125 C 14.203125 -73.832031 17.828125 -76.628906 22.546875 -78.671875 C 27.265625 -80.710938 32.691406 -81.734375 38.828125 -81.734375 C 47.972656 -81.734375 55.34375 -79.421875 60.9375 -74.796875 C 66.53125 -70.179688 69.519531 -63.882812 69.90625 -55.90625 L 53.265625 -55.90625 C 52.972656 -59.5 51.515625 -62.363281 48.890625 -64.5 C 46.265625 -66.644531 42.710938 -67.71875 38.234375 -67.71875 C 33.859375 -67.71875 30.503906 -66.890625 28.171875 -65.234375 C 25.835938 -63.585938 24.671875 -61.398438 24.671875 -58.671875 C 24.671875 -56.535156 25.445312 -54.734375 27 -53.265625 C 28.5625 -51.804688 30.457031 -50.664062 32.6875 -49.84375 C 34.925781 -49.019531 38.238281 -47.972656 42.625 -46.703125 C 48.457031 -45.148438 53.242188 -43.566406 56.984375 -41.953125 C 60.734375 -40.347656 63.96875 -37.988281 66.6875 -34.875 C 69.414062 -31.769531 70.832031 -27.640625 70.9375 -22.484375 C 70.9375 -17.898438 69.671875 -13.804688 67.140625 -10.203125 C 64.609375 -6.609375 61.03125 -3.789062 56.40625 -1.75 C 51.789062 0.289062 46.367188 1.3125 40.140625 1.3125 Z M 40.140625 1.3125 "/></g></g></g><g fill="#ffffff" fill-opacity="1"><g transform="translate(636.367273, 155.419162)"><g/></g></g><g fill="#ffffff" fill-opacity="1"><g transform="translate(674.313721, 155.419162)"><g><path d="M 117.78125 -101.4375 L 117.78125 0 L 101.140625 0 L 101.140625 -69.46875 L 70.203125 0 L 58.671875 0 L 27.578125 -69.46875 L 27.578125 0 L 10.953125 0 L 10.953125 -101.4375 L 28.90625 -101.4375 L 64.515625 -21.890625 L 99.984375 -101.4375 Z M 117.78125 -101.4375 "/></g></g></g><g fill="#ffffff" fill-opacity="1"><g transform="translate(803.039828, 155.419162)"><g><path d="M 84.65625 -42.1875 C 84.65625 -39.164062 84.457031 -36.4375 84.0625 -34 L 22.625 -34 C 23.113281 -27.582031 25.5 -22.425781 29.78125 -18.53125 C 34.0625 -14.644531 39.3125 -12.703125 45.53125 -12.703125 C 54.488281 -12.703125 60.816406 -16.445312 64.515625 -23.9375 L 82.46875 -23.9375 C 80.03125 -16.539062 75.625 -10.484375 69.25 -5.765625 C 62.875 -1.046875 54.96875 1.3125 45.53125 1.3125 C 37.84375 1.3125 30.957031 -0.410156 24.875 -3.859375 C 18.800781 -7.316406 14.035156 -12.179688 10.578125 -18.453125 C 7.128906 -24.734375 5.40625 -32.007812 5.40625 -40.28125 C 5.40625 -48.550781 7.082031 -55.820312 10.4375 -62.09375 C 13.789062 -68.375 18.507812 -73.21875 24.59375 -76.625 C 30.675781 -80.03125 37.65625 -81.734375 45.53125 -81.734375 C 53.125 -81.734375 59.890625 -80.078125 65.828125 -76.765625 C 71.765625 -73.460938 76.382812 -68.816406 79.6875 -62.828125 C 83 -56.847656 84.65625 -49.96875 84.65625 -42.1875 Z M 67.28125 -47.4375 C 67.1875 -53.5625 65 -58.472656 60.71875 -62.171875 C 56.4375 -65.867188 51.132812 -67.71875 44.8125 -67.71875 C 39.070312 -67.71875 34.15625 -65.894531 30.0625 -62.25 C 25.976562 -58.601562 23.546875 -53.664062 22.765625 -47.4375 Z M 67.28125 -47.4375 "/></g></g></g><g fill="#ffffff" fill-opacity="1"><g transform="translate(893.089711, 155.419162)"><g><path d="M 5.40625 -40.578125 C 5.40625 -48.648438 7.082031 -55.800781 10.4375 -62.03125 C 13.789062 -68.257812 18.363281 -73.097656 24.15625 -76.546875 C 29.945312 -80.003906 36.394531 -81.734375 43.5 -81.734375 C 48.75 -81.734375 53.925781 -80.585938 59.03125 -78.296875 C 64.144531 -76.015625 68.207031 -72.976562 71.21875 -69.1875 L 71.21875 -108 L 88.015625 -108 L 88.015625 0 L 71.21875 0 L 71.21875 -12.109375 C 68.5 -8.222656 64.726562 -5.015625 59.90625 -2.484375 C 55.09375 0.046875 49.570312 1.3125 43.34375 1.3125 C 36.34375 1.3125 29.945312 -0.460938 24.15625 -4.015625 C 18.363281 -7.566406 13.789062 -12.523438 10.4375 -18.890625 C 7.082031 -25.265625 5.40625 -32.492188 5.40625 -40.578125 Z M 71.21875 -40.28125 C 71.21875 -45.832031 70.070312 -50.648438 67.78125 -54.734375 C 65.5 -58.816406 62.507812 -61.925781 58.8125 -64.0625 C 55.113281 -66.207031 51.125 -67.28125 46.84375 -67.28125 C 42.5625 -67.28125 38.570312 -66.234375 34.875 -64.140625 C 31.1875 -62.054688 28.195312 -58.992188 25.90625 -54.953125 C 23.625 -50.910156 22.484375 -46.117188 22.484375 -40.578125 C 22.484375 -35.023438 23.625 -30.15625 25.90625 -25.96875 C 28.195312 -21.789062 31.210938 -18.609375 34.953125 -16.421875 C 38.703125 -14.234375 42.664062 -13.140625 46.84375 -13.140625 C 51.125 -13.140625 55.113281 -14.207031 58.8125 -16.34375 C 62.507812 -18.488281 65.5 -21.628906 67.78125 -25.765625 C 70.070312 -29.898438 71.21875 -34.738281 71.21875 -40.28125 Z M 71.21875 -40.28125 "/></g></g></g><g fill="#ffffff" fill-opacity="1"><g transform="translate(992.042454, 155.419162)"><g><path d="M 19.40625 -91.078125 C 16.394531 -91.078125 13.863281 -92.097656 11.8125 -94.140625 C 9.769531 -96.179688 8.75 -98.710938 8.75 -101.734375 C 8.75 -104.742188 9.769531 -107.269531 11.8125 -109.3125 C 13.863281 -111.363281 16.394531 -112.390625 19.40625 -112.390625 C 22.332031 -112.390625 24.816406 -111.363281 26.859375 -109.3125 C 28.898438 -107.269531 29.921875 -104.742188 29.921875 -101.734375 C 29.921875 -98.710938 28.898438 -96.179688 26.859375 -94.140625 C 24.816406 -92.097656 22.332031 -91.078125 19.40625 -91.078125 Z M 27.578125 -80.421875 L 27.578125 0 L 10.953125 0 L 10.953125 -80.421875 Z M 27.578125 -80.421875 "/></g></g></g><g fill="#ffffff" fill-opacity="1"><g transform="translate(1030.572759, 155.419162)"><g><path d="M 5.40625 -40.578125 C 5.40625 -48.648438 7.082031 -55.800781 10.4375 -62.03125 C 13.789062 -68.257812 18.363281 -73.097656 24.15625 -76.546875 C 29.945312 -80.003906 36.34375 -81.734375 43.34375 -81.734375 C 49.664062 -81.734375 55.1875 -80.492188 59.90625 -78.015625 C 64.632812 -75.535156 68.40625 -72.445312 71.21875 -68.75 L 71.21875 -80.421875 L 88.015625 -80.421875 L 88.015625 0 L 71.21875 0 L 71.21875 -11.96875 C 68.40625 -8.175781 64.5625 -5.015625 59.6875 -2.484375 C 54.820312 0.046875 49.28125 1.3125 43.0625 1.3125 C 36.144531 1.3125 29.816406 -0.460938 24.078125 -4.015625 C 18.335938 -7.566406 13.789062 -12.523438 10.4375 -18.890625 C 7.082031 -25.265625 5.40625 -32.492188 5.40625 -40.578125 Z M 71.21875 -40.28125 C 71.21875 -45.832031 70.070312 -50.648438 67.78125 -54.734375 C 65.5 -58.816406 62.507812 -61.925781 58.8125 -64.0625 C 55.113281 -66.207031 51.125 -67.28125 46.84375 -67.28125 C 42.5625 -67.28125 38.570312 -66.234375 34.875 -64.140625 C 31.1875 -62.054688 28.195312 -58.992188 25.90625 -54.953125 C 23.625 -50.910156 22.484375 -46.117188 22.484375 -40.578125 C 22.484375 -35.023438 23.625 -30.15625 25.90625 -25.96875 C 28.195312 -21.789062 31.210938 -18.609375 34.953125 -16.421875 C 38.703125 -14.234375 42.664062 -13.140625 46.84375 -13.140625 C 51.125 -13.140625 55.113281 -14.207031 58.8125 -16.34375 C 62.507812 -18.488281 65.5 -21.628906 67.78125 -25.765625 C 70.070312 -29.898438 71.21875 -34.738281 71.21875 -40.28125 Z M 71.21875 -40.28125 "/></g></g></g><g fill="#ffffff" fill-opacity="1"><g transform="translate(318.809748, 220.301691)"><g><path d="M 12.328125 -27.5 C 15.210938 -27.5 17.75 -26.929688 19.9375 -25.796875 C 22.132812 -24.671875 23.832031 -23.0625 25.03125 -20.96875 C 26.226562 -18.882812 26.828125 -16.460938 26.828125 -13.703125 C 26.828125 -10.953125 26.226562 -8.546875 25.03125 -6.484375 C 23.832031 -4.421875 22.132812 -2.820312 19.9375 -1.6875 C 17.75 -0.5625 15.210938 0 12.328125 0 L 2.71875 0 L 2.71875 -27.5 Z M 12.125 -4.6875 C 15.019531 -4.6875 17.253906 -5.472656 18.828125 -7.046875 C 20.398438 -8.628906 21.1875 -10.847656 21.1875 -13.703125 C 21.1875 -16.566406 20.398438 -18.804688 18.828125 -20.421875 C 17.253906 -22.035156 15.019531 -22.84375 12.125 -22.84375 L 8.234375 -22.84375 L 8.234375 -4.6875 Z M 12.125 -4.6875 "/></g></g></g><g fill="#ffffff" fill-opacity="1"><g transform="translate(347.043978, 220.301691)"><g><path d="M 12.40625 0.359375 C 10.300781 0.359375 8.410156 -0.101562 6.734375 -1.03125 C 5.054688 -1.96875 3.738281 -3.289062 2.78125 -5 C 1.820312 -6.707031 1.34375 -8.675781 1.34375 -10.90625 C 1.34375 -13.144531 1.832031 -15.113281 2.8125 -16.8125 C 3.800781 -18.519531 5.148438 -19.835938 6.859375 -20.765625 C 8.566406 -21.703125 10.46875 -22.171875 12.5625 -22.171875 C 14.664062 -22.171875 16.570312 -21.703125 18.28125 -20.765625 C 19.988281 -19.835938 21.332031 -18.519531 22.3125 -16.8125 C 23.300781 -15.113281 23.796875 -13.144531 23.796875 -10.90625 C 23.796875 -8.675781 23.289062 -6.707031 22.28125 -5 C 21.269531 -3.289062 19.898438 -1.96875 18.171875 -1.03125 C 16.453125 -0.101562 14.53125 0.359375 12.40625 0.359375 Z M 12.40625 -4.453125 C 13.40625 -4.453125 14.34375 -4.691406 15.21875 -5.171875 C 16.101562 -5.660156 16.804688 -6.390625 17.328125 -7.359375 C 17.859375 -8.335938 18.125 -9.519531 18.125 -10.90625 C 18.125 -12.976562 17.578125 -14.570312 16.484375 -15.6875 C 15.390625 -16.8125 14.054688 -17.375 12.484375 -17.375 C 10.910156 -17.375 9.59375 -16.8125 8.53125 -15.6875 C 7.46875 -14.570312 6.9375 -12.976562 6.9375 -10.90625 C 6.9375 -8.832031 7.453125 -7.238281 8.484375 -6.125 C 9.523438 -5.007812 10.832031 -4.453125 12.40625 -4.453125 Z M 12.40625 -4.453125 "/></g></g></g><g fill="#ffffff" fill-opacity="1"><g transform="translate(372.16732, 220.301691)"><g><path d="M 11.8125 -5.078125 L 17.328125 -21.828125 L 23.203125 -21.828125 L 15.125 0 L 8.421875 0 L 0.390625 -21.828125 L 6.296875 -21.828125 Z M 11.8125 -5.078125 "/></g></g></g><g fill="#ffffff" fill-opacity="1"><g transform="translate(395.754904, 220.301691)"><g><path d="M 23 -11.390625 C 23 -10.597656 22.945312 -9.882812 22.84375 -9.25 L 6.890625 -9.25 C 7.023438 -7.675781 7.578125 -6.441406 8.546875 -5.546875 C 9.515625 -4.660156 10.707031 -4.21875 12.125 -4.21875 C 14.175781 -4.21875 15.632812 -5.097656 16.5 -6.859375 L 22.453125 -6.859375 C 21.816406 -4.753906 20.609375 -3.023438 18.828125 -1.671875 C 17.046875 -0.316406 14.851562 0.359375 12.25 0.359375 C 10.144531 0.359375 8.257812 -0.101562 6.59375 -1.03125 C 4.925781 -1.96875 3.625 -3.289062 2.6875 -5 C 1.757812 -6.707031 1.296875 -8.675781 1.296875 -10.90625 C 1.296875 -13.164062 1.753906 -15.148438 2.671875 -16.859375 C 3.597656 -18.566406 4.882812 -19.878906 6.53125 -20.796875 C 8.1875 -21.710938 10.09375 -22.171875 12.25 -22.171875 C 14.320312 -22.171875 16.175781 -21.722656 17.8125 -20.828125 C 19.457031 -19.941406 20.734375 -18.675781 21.640625 -17.03125 C 22.546875 -15.394531 23 -13.515625 23 -11.390625 Z M 17.296875 -12.953125 C 17.265625 -14.378906 16.75 -15.515625 15.75 -16.359375 C 14.757812 -17.210938 13.539062 -17.640625 12.09375 -17.640625 C 10.726562 -17.640625 9.578125 -17.226562 8.640625 -16.40625 C 7.710938 -15.582031 7.144531 -14.429688 6.9375 -12.953125 Z M 17.296875 -12.953125 "/></g></g></g><g fill="#ffffff" fill-opacity="1"><g transform="translate(420.051304, 220.301691)"><g/></g></g><g fill="#ffffff" fill-opacity="1"><g transform="translate(429.423339, 220.301691)"><g><path d="M 8.234375 -27.5 L 8.234375 0 L 2.71875 0 L 2.71875 -27.5 Z M 8.234375 -27.5 "/></g></g></g><g fill="#ffffff" fill-opacity="1"><g transform="translate(440.370504, 220.301691)"><g><path d="M 8.234375 -29.15625 L 8.234375 0 L 2.71875 0 L 2.71875 -29.15625 Z M 8.234375 -29.15625 "/></g></g></g><g fill="#ffffff" fill-opacity="1"><g transform="translate(451.317668, 220.301691)"><g/></g></g><g fill="#ffffff" fill-opacity="1"><g transform="translate(460.689703, 220.301691)"><g><path d="M 12.328125 -27.5 C 15.210938 -27.5 17.75 -26.929688 19.9375 -25.796875 C 22.132812 -24.671875 23.832031 -23.0625 25.03125 -20.96875 C 26.226562 -18.882812 26.828125 -16.460938 26.828125 -13.703125 C 26.828125 -10.953125 26.226562 -8.546875 25.03125 -6.484375 C 23.832031 -4.421875 22.132812 -2.820312 19.9375 -1.6875 C 17.75 -0.5625 15.210938 0 12.328125 0 L 2.71875 0 L 2.71875 -27.5 Z M 12.125 -4.6875 C 15.019531 -4.6875 17.253906 -5.472656 18.828125 -7.046875 C 20.398438 -8.628906 21.1875 -10.847656 21.1875 -13.703125 C 21.1875 -16.566406 20.398438 -18.804688 18.828125 -20.421875 C 17.253906 -22.035156 15.019531 -22.84375 12.125 -22.84375 L 8.234375 -22.84375 L 8.234375 -4.6875 Z M 12.125 -4.6875 "/></g></g></g><g fill="#ffffff" fill-opacity="1"><g transform="translate(488.923933, 220.301691)"><g><path d="M 5.515625 -24.421875 C 4.546875 -24.421875 3.738281 -24.726562 3.09375 -25.34375 C 2.445312 -25.96875 2.125 -26.738281 2.125 -27.65625 C 2.125 -28.570312 2.445312 -29.335938 3.09375 -29.953125 C 3.738281 -30.566406 4.546875 -30.875 5.515625 -30.875 C 6.484375 -30.875 7.289062 -30.566406 7.9375 -29.953125 C 8.582031 -29.335938 8.90625 -28.570312 8.90625 -27.65625 C 8.90625 -26.738281 8.582031 -25.96875 7.9375 -25.34375 C 7.289062 -24.726562 6.484375 -24.421875 5.515625 -24.421875 Z M 8.234375 -21.828125 L 8.234375 0 L 2.71875 0 L 2.71875 -21.828125 Z M 8.234375 -21.828125 "/></g></g></g><g fill="#ffffff" fill-opacity="1"><g transform="translate(499.871097, 220.301691)"><g><path d="M 11.265625 -22.171875 C 12.890625 -22.171875 14.316406 -21.847656 15.546875 -21.203125 C 16.785156 -20.566406 17.757812 -19.734375 18.46875 -18.703125 L 18.46875 -21.828125 L 24.03125 -21.828125 L 24.03125 0.15625 C 24.03125 2.175781 23.625 3.976562 22.8125 5.5625 C 22 7.15625 20.773438 8.414062 19.140625 9.34375 C 17.515625 10.28125 15.546875 10.75 13.234375 10.75 C 10.140625 10.75 7.597656 10.023438 5.609375 8.578125 C 3.628906 7.140625 2.507812 5.171875 2.25 2.671875 L 7.71875 2.671875 C 8.007812 3.671875 8.632812 4.46875 9.59375 5.0625 C 10.550781 5.65625 11.710938 5.953125 13.078125 5.953125 C 14.679688 5.953125 15.976562 5.472656 16.96875 4.515625 C 17.96875 3.554688 18.46875 2.101562 18.46875 0.15625 L 18.46875 -3.234375 C 17.757812 -2.203125 16.78125 -1.34375 15.53125 -0.65625 C 14.289062 0.0195312 12.867188 0.359375 11.265625 0.359375 C 9.429688 0.359375 7.75 -0.113281 6.21875 -1.0625 C 4.695312 -2.007812 3.492188 -3.34375 2.609375 -5.0625 C 1.734375 -6.78125 1.296875 -8.753906 1.296875 -10.984375 C 1.296875 -13.191406 1.734375 -15.148438 2.609375 -16.859375 C 3.492188 -18.566406 4.691406 -19.878906 6.203125 -20.796875 C 7.710938 -21.710938 9.398438 -22.171875 11.265625 -22.171875 Z M 18.46875 -10.90625 C 18.46875 -12.25 18.207031 -13.398438 17.6875 -14.359375 C 17.164062 -15.316406 16.457031 -16.050781 15.5625 -16.5625 C 14.664062 -17.070312 13.707031 -17.328125 12.6875 -17.328125 C 11.65625 -17.328125 10.707031 -17.078125 9.84375 -16.578125 C 8.976562 -16.078125 8.273438 -15.347656 7.734375 -14.390625 C 7.203125 -13.429688 6.9375 -12.296875 6.9375 -10.984375 C 6.9375 -9.671875 7.203125 -8.519531 7.734375 -7.53125 C 8.273438 -6.550781 8.984375 -5.796875 9.859375 -5.265625 C 10.742188 -4.742188 11.6875 -4.484375 12.6875 -4.484375 C 13.707031 -4.484375 14.664062 -4.738281 15.5625 -5.25 C 16.457031 -5.769531 17.164062 -6.507812 17.6875 -7.46875 C 18.207031 -8.425781 18.46875 -9.570312 18.46875 -10.90625 Z M 18.46875 -10.90625 "/></g></g></g><g fill="#ffffff" fill-opacity="1"><g transform="translate(526.569569, 220.301691)"><g><path d="M 5.515625 -24.421875 C 4.546875 -24.421875 3.738281 -24.726562 3.09375 -25.34375 C 2.445312 -25.96875 2.125 -26.738281 2.125 -27.65625 C 2.125 -28.570312 2.445312 -29.335938 3.09375 -29.953125 C 3.738281 -30.566406 4.546875 -30.875 5.515625 -30.875 C 6.484375 -30.875 7.289062 -30.566406 7.9375 -29.953125 C 8.582031 -29.335938 8.90625 -28.570312 8.90625 -27.65625 C 8.90625 -26.738281 8.582031 -25.96875 7.9375 -25.34375 C 7.289062 -24.726562 6.484375 -24.421875 5.515625 -24.421875 Z M 8.234375 -21.828125 L 8.234375 0 L 2.71875 0 L 2.71875 -21.828125 Z M 8.234375 -21.828125 "/></g></g></g><g fill="#ffffff" fill-opacity="1"><g transform="translate(537.516733, 220.301691)"><g><path d="M 9.140625 -17.296875 L 9.140625 -6.734375 C 9.140625 -6.003906 9.316406 -5.472656 9.671875 -5.140625 C 10.023438 -4.804688 10.625 -4.640625 11.46875 -4.640625 L 14.015625 -4.640625 L 14.015625 0 L 10.5625 0 C 5.90625 0 3.578125 -2.257812 3.578125 -6.78125 L 3.578125 -17.296875 L 0.984375 -17.296875 L 0.984375 -21.828125 L 3.578125 -21.828125 L 3.578125 -27.21875 L 9.140625 -27.21875 L 9.140625 -21.828125 L 14.015625 -21.828125 L 14.015625 -17.296875 Z M 9.140625 -17.296875 "/></g></g></g><g fill="#ffffff" fill-opacity="1"><g transform="translate(552.7955, 220.301691)"><g><path d="M 1.296875 -10.984375 C 1.296875 -13.191406 1.734375 -15.148438 2.609375 -16.859375 C 3.492188 -18.566406 4.691406 -19.878906 6.203125 -20.796875 C 7.710938 -21.710938 9.398438 -22.171875 11.265625 -22.171875 C 12.890625 -22.171875 14.3125 -21.84375 15.53125 -21.1875 C 16.757812 -20.53125 17.738281 -19.703125 18.46875 -18.703125 L 18.46875 -21.828125 L 24.03125 -21.828125 L 24.03125 0 L 18.46875 0 L 18.46875 -3.1875 C 17.757812 -2.164062 16.78125 -1.316406 15.53125 -0.640625 C 14.289062 0.0234375 12.851562 0.359375 11.21875 0.359375 C 9.382812 0.359375 7.710938 -0.113281 6.203125 -1.0625 C 4.691406 -2.007812 3.492188 -3.34375 2.609375 -5.0625 C 1.734375 -6.78125 1.296875 -8.753906 1.296875 -10.984375 Z M 18.46875 -10.90625 C 18.46875 -12.25 18.207031 -13.398438 17.6875 -14.359375 C 17.164062 -15.316406 16.457031 -16.050781 15.5625 -16.5625 C 14.664062 -17.070312 13.707031 -17.328125 12.6875 -17.328125 C 11.65625 -17.328125 10.707031 -17.078125 9.84375 -16.578125 C 8.976562 -16.078125 8.273438 -15.347656 7.734375 -14.390625 C 7.203125 -13.429688 6.9375 -12.296875 6.9375 -10.984375 C 6.9375 -9.671875 7.203125 -8.519531 7.734375 -7.53125 C 8.273438 -6.550781 8.984375 -5.796875 9.859375 -5.265625 C 10.742188 -4.742188 11.6875 -4.484375 12.6875 -4.484375 C 13.707031 -4.484375 14.664062 -4.738281 15.5625 -5.25 C 16.457031 -5.769531 17.164062 -6.507812 17.6875 -7.46875 C 18.207031 -8.425781 18.46875 -9.570312 18.46875 -10.90625 Z M 18.46875 -10.90625 "/></g></g></g><g fill="#ffffff" fill-opacity="1"><g transform="translate(579.493972, 220.301691)"><g><path d="M 8.234375 -29.15625 L 8.234375 0 L 2.71875 0 L 2.71875 -29.15625 Z M 8.234375 -29.15625 "/></g></g></g><g fill="#ffffff" fill-opacity="1"><g transform="translate(590.441124, 220.301691)"><g><path d="M 23 -11.390625 C 23 -10.597656 22.945312 -9.882812 22.84375 -9.25 L 6.890625 -9.25 C 7.023438 -7.675781 7.578125 -6.441406 8.546875 -5.546875 C 9.515625 -4.660156 10.707031 -4.21875 12.125 -4.21875 C 14.175781 -4.21875 15.632812 -5.097656 16.5 -6.859375 L 22.453125 -6.859375 C 21.816406 -4.753906 20.609375 -3.023438 18.828125 -1.671875 C 17.046875 -0.316406 14.851562 0.359375 12.25 0.359375 C 10.144531 0.359375 8.257812 -0.101562 6.59375 -1.03125 C 4.925781 -1.96875 3.625 -3.289062 2.6875 -5 C 1.757812 -6.707031 1.296875 -8.675781 1.296875 -10.90625 C 1.296875 -13.164062 1.753906 -15.148438 2.671875 -16.859375 C 3.597656 -18.566406 4.882812 -19.878906 6.53125 -20.796875 C 8.1875 -21.710938 10.09375 -22.171875 12.25 -22.171875 C 14.320312 -22.171875 16.175781 -21.722656 17.8125 -20.828125 C 19.457031 -19.941406 20.734375 -18.675781 21.640625 -17.03125 C 22.546875 -15.394531 23 -13.515625 23 -11.390625 Z M 17.296875 -12.953125 C 17.265625 -14.378906 16.75 -15.515625 15.75 -16.359375 C 14.757812 -17.210938 13.539062 -17.640625 12.09375 -17.640625 C 10.726562 -17.640625 9.578125 -17.226562 8.640625 -16.40625 C 7.710938 -15.582031 7.144531 -14.429688 6.9375 -12.953125 Z M 17.296875 -12.953125 "/></g></g></g><g fill="#ffffff" fill-opacity="1"><g transform="translate(614.737524, 220.301691)"><g/></g></g><g fill="#ffffff" fill-opacity="1"><g transform="translate(624.109559, 220.301691)"><g><path d="M 8.234375 -27.5 L 8.234375 0 L 2.71875 0 L 2.71875 -27.5 Z M 8.234375 -27.5 "/></g></g></g><g fill="#ffffff" fill-opacity="1"><g transform="translate(635.056736, 220.301691)"><g><path d="M 14.8125 -22.140625 C 17.40625 -22.140625 19.503906 -21.316406 21.109375 -19.671875 C 22.710938 -18.035156 23.515625 -15.742188 23.515625 -12.796875 L 23.515625 0 L 18 0 L 18 -12.046875 C 18 -13.785156 17.566406 -15.117188 16.703125 -16.046875 C 15.835938 -16.984375 14.65625 -17.453125 13.15625 -17.453125 C 11.632812 -17.453125 10.429688 -16.984375 9.546875 -16.046875 C 8.671875 -15.117188 8.234375 -13.785156 8.234375 -12.046875 L 8.234375 0 L 2.71875 0 L 2.71875 -21.828125 L 8.234375 -21.828125 L 8.234375 -19.109375 C 8.960938 -20.046875 9.898438 -20.785156 11.046875 -21.328125 C 12.191406 -21.867188 13.445312 -22.140625 14.8125 -22.140625 Z M 14.8125 -22.140625 "/></g></g></g><g fill="#ffffff" fill-opacity="1"><g transform="translate(661.085762, 220.301691)"><g><path d="M 1.296875 -10.90625 C 1.296875 -13.164062 1.753906 -15.140625 2.671875 -16.828125 C 3.597656 -18.523438 4.875 -19.835938 6.5 -20.765625 C 8.125 -21.703125 9.988281 -22.171875 12.09375 -22.171875 C 14.800781 -22.171875 17.039062 -21.492188 18.8125 -20.140625 C 20.582031 -18.796875 21.769531 -16.898438 22.375 -14.453125 L 16.421875 -14.453125 C 16.109375 -15.398438 15.578125 -16.140625 14.828125 -16.671875 C 14.078125 -17.210938 13.148438 -17.484375 12.046875 -17.484375 C 10.472656 -17.484375 9.226562 -16.910156 8.3125 -15.765625 C 7.394531 -14.628906 6.9375 -13.007812 6.9375 -10.90625 C 6.9375 -8.832031 7.394531 -7.222656 8.3125 -6.078125 C 9.226562 -4.941406 10.472656 -4.375 12.046875 -4.375 C 14.285156 -4.375 15.742188 -5.367188 16.421875 -7.359375 L 22.375 -7.359375 C 21.769531 -5.003906 20.570312 -3.128906 18.78125 -1.734375 C 17 -0.335938 14.769531 0.359375 12.09375 0.359375 C 9.988281 0.359375 8.125 -0.101562 6.5 -1.03125 C 4.875 -1.96875 3.597656 -3.285156 2.671875 -4.984375 C 1.753906 -6.679688 1.296875 -8.65625 1.296875 -10.90625 Z M 1.296875 -10.90625 "/></g></g></g><g fill="#ffffff" fill-opacity="1"><g transform="translate(684.791484, 220.301691)"><g><path d="M 12.40625 0.359375 C 10.300781 0.359375 8.410156 -0.101562 6.734375 -1.03125 C 5.054688 -1.96875 3.738281 -3.289062 2.78125 -5 C 1.820312 -6.707031 1.34375 -8.675781 1.34375 -10.90625 C 1.34375 -13.144531 1.832031 -15.113281 2.8125 -16.8125 C 3.800781 -18.519531 5.148438 -19.835938 6.859375 -20.765625 C 8.566406 -21.703125 10.46875 -22.171875 12.5625 -22.171875 C 14.664062 -22.171875 16.570312 -21.703125 18.28125 -20.765625 C 19.988281 -19.835938 21.332031 -18.519531 22.3125 -16.8125 C 23.300781 -15.113281 23.796875 -13.144531 23.796875 -10.90625 C 23.796875 -8.675781 23.289062 -6.707031 22.28125 -5 C 21.269531 -3.289062 19.898438 -1.96875 18.171875 -1.03125 C 16.453125 -0.101562 14.53125 0.359375 12.40625 0.359375 Z M 12.40625 -4.453125 C 13.40625 -4.453125 14.34375 -4.691406 15.21875 -5.171875 C 16.101562 -5.660156 16.804688 -6.390625 17.328125 -7.359375 C 17.859375 -8.335938 18.125 -9.519531 18.125 -10.90625 C 18.125 -12.976562 17.578125 -14.570312 16.484375 -15.6875 C 15.390625 -16.8125 14.054688 -17.375 12.484375 -17.375 C 10.910156 -17.375 9.59375 -16.8125 8.53125 -15.6875 C 7.46875 -14.570312 6.9375 -12.976562 6.9375 -10.90625 C 6.9375 -8.832031 7.453125 -7.238281 8.484375 -6.125 C 9.523438 -5.007812 10.832031 -4.453125 12.40625 -4.453125 Z M 12.40625 -4.453125 "/></g></g></g><g fill="#ffffff" fill-opacity="1"><g transform="translate(709.914814, 220.301691)"><g><path d="M 9.140625 -17.296875 L 9.140625 -6.734375 C 9.140625 -6.003906 9.316406 -5.472656 9.671875 -5.140625 C 10.023438 -4.804688 10.625 -4.640625 11.46875 -4.640625 L 14.015625 -4.640625 L 14.015625 0 L 10.5625 0 C 5.90625 0 3.578125 -2.257812 3.578125 -6.78125 L 3.578125 -17.296875 L 0.984375 -17.296875 L 0.984375 -21.828125 L 3.578125 -21.828125 L 3.578125 -27.21875 L 9.140625 -27.21875 L 9.140625 -21.828125 L 14.015625 -21.828125 L 14.015625 -17.296875 Z M 9.140625 -17.296875 "/></g></g></g><g fill="#ffffff" fill-opacity="1"><g transform="translate(725.193581, 220.301691)"><g><path d="M 8.234375 -18.4375 C 8.941406 -19.59375 9.863281 -20.5 11 -21.15625 C 12.144531 -21.8125 13.453125 -22.140625 14.921875 -22.140625 L 14.921875 -16.34375 L 13.46875 -16.34375 C 11.738281 -16.34375 10.429688 -15.9375 9.546875 -15.125 C 8.671875 -14.3125 8.234375 -12.894531 8.234375 -10.875 L 8.234375 0 L 2.71875 0 L 2.71875 -21.828125 L 8.234375 -21.828125 Z M 8.234375 -18.4375 "/></g></g></g><g fill="#ffffff" fill-opacity="1"><g transform="translate(741.102435, 220.301691)"><g><path d="M 1.296875 -10.984375 C 1.296875 -13.191406 1.734375 -15.148438 2.609375 -16.859375 C 3.492188 -18.566406 4.691406 -19.878906 6.203125 -20.796875 C 7.710938 -21.710938 9.398438 -22.171875 11.265625 -22.171875 C 12.890625 -22.171875 14.3125 -21.84375 15.53125 -21.1875 C 16.757812 -20.53125 17.738281 -19.703125 18.46875 -18.703125 L 18.46875 -21.828125 L 24.03125 -21.828125 L 24.03125 0 L 18.46875 0 L 18.46875 -3.1875 C 17.757812 -2.164062 16.78125 -1.316406 15.53125 -0.640625 C 14.289062 0.0234375 12.851562 0.359375 11.21875 0.359375 C 9.382812 0.359375 7.710938 -0.113281 6.203125 -1.0625 C 4.691406 -2.007812 3.492188 -3.34375 2.609375 -5.0625 C 1.734375 -6.78125 1.296875 -8.753906 1.296875 -10.984375 Z M 18.46875 -10.90625 C 18.46875 -12.25 18.207031 -13.398438 17.6875 -14.359375 C 17.164062 -15.316406 16.457031 -16.050781 15.5625 -16.5625 C 14.664062 -17.070312 13.707031 -17.328125 12.6875 -17.328125 C 11.65625 -17.328125 10.707031 -17.078125 9.84375 -16.578125 C 8.976562 -16.078125 8.273438 -15.347656 7.734375 -14.390625 C 7.203125 -13.429688 6.9375 -12.296875 6.9375 -10.984375 C 6.9375 -9.671875 7.203125 -8.519531 7.734375 -7.53125 C 8.273438 -6.550781 8.984375 -5.796875 9.859375 -5.265625 C 10.742188 -4.742188 11.6875 -4.484375 12.6875 -4.484375 C 13.707031 -4.484375 14.664062 -4.738281 15.5625 -5.25 C 16.457031 -5.769531 17.164062 -6.507812 17.6875 -7.46875 C 18.207031 -8.425781 18.46875 -9.570312 18.46875 -10.90625 Z M 18.46875 -10.90625 "/></g></g></g><g fill="#ffffff" fill-opacity="1"><g transform="translate(767.800882, 220.301691)"><g/></g></g><g fill="#ffffff" fill-opacity="1"><g transform="translate(777.172917, 220.301691)"><g><path d="M 8.234375 -27.5 L 8.234375 0 L 2.71875 0 L 2.71875 -27.5 Z M 8.234375 -27.5 "/></g></g></g><g fill="#ffffff" fill-opacity="1"><g transform="translate(788.120094, 220.301691)"><g><path d="M 8.234375 -29.15625 L 8.234375 0 L 2.71875 0 L 2.71875 -29.15625 Z M 8.234375 -29.15625 "/></g></g></g><g fill="#ffffff" fill-opacity="1"><g transform="translate(799.067271, 220.301691)"><g/></g></g><g fill="#ffffff" fill-opacity="1"><g transform="translate(808.439306, 220.301691)"><g><path d="M 16.90625 0 L 10.828125 -10.71875 L 8.234375 -10.71875 L 8.234375 0 L 2.71875 0 L 2.71875 -27.5 L 13.03125 -27.5 C 15.164062 -27.5 16.976562 -27.125 18.46875 -26.375 C 19.96875 -25.625 21.09375 -24.609375 21.84375 -23.328125 C 22.59375 -22.054688 22.96875 -20.632812 22.96875 -19.0625 C 22.96875 -17.25 22.441406 -15.613281 21.390625 -14.15625 C 20.335938 -12.695312 18.773438 -11.691406 16.703125 -11.140625 L 23.28125 0 Z M 8.234375 -14.84375 L 12.84375 -14.84375 C 14.34375 -14.84375 15.457031 -15.203125 16.1875 -15.921875 C 16.925781 -16.648438 17.296875 -17.660156 17.296875 -18.953125 C 17.296875 -20.210938 16.925781 -21.1875 16.1875 -21.875 C 15.457031 -22.570312 14.34375 -22.921875 12.84375 -22.921875 L 8.234375 -22.921875 Z M 8.234375 -14.84375 "/></g></g></g><g fill="#ffffff" fill-opacity="1"><g transform="translate(833.680812, 220.301691)"><g><path d="M 5.515625 -24.421875 C 4.546875 -24.421875 3.738281 -24.726562 3.09375 -25.34375 C 2.445312 -25.96875 2.125 -26.738281 2.125 -27.65625 C 2.125 -28.570312 2.445312 -29.335938 3.09375 -29.953125 C 3.738281 -30.566406 4.546875 -30.875 5.515625 -30.875 C 6.484375 -30.875 7.289062 -30.566406 7.9375 -29.953125 C 8.582031 -29.335938 8.90625 -28.570312 8.90625 -27.65625 C 8.90625 -26.738281 8.582031 -25.96875 7.9375 -25.34375 C 7.289062 -24.726562 6.484375 -24.421875 5.515625 -24.421875 Z M 8.234375 -21.828125 L 8.234375 0 L 2.71875 0 L 2.71875 -21.828125 Z M 8.234375 -21.828125 "/></g></g></g><g fill="#ffffff" fill-opacity="1"><g transform="translate(844.627988, 220.301691)"><g><path d="M 14.8125 -22.140625 C 17.40625 -22.140625 19.503906 -21.316406 21.109375 -19.671875 C 22.710938 -18.035156 23.515625 -15.742188 23.515625 -12.796875 L 23.515625 0 L 18 0 L 18 -12.046875 C 18 -13.785156 17.566406 -15.117188 16.703125 -16.046875 C 15.835938 -16.984375 14.65625 -17.453125 13.15625 -17.453125 C 11.632812 -17.453125 10.429688 -16.984375 9.546875 -16.046875 C 8.671875 -15.117188 8.234375 -13.785156 8.234375 -12.046875 L 8.234375 0 L 2.71875 0 L 2.71875 -21.828125 L 8.234375 -21.828125 L 8.234375 -19.109375 C 8.960938 -20.046875 9.898438 -20.785156 11.046875 -21.328125 C 12.191406 -21.867188 13.445312 -22.140625 14.8125 -22.140625 Z M 14.8125 -22.140625 "/></g></g></g><g fill="#ffffff" fill-opacity="1"><g transform="translate(870.657015, 220.301691)"><g><path d="M 14.8125 -22.140625 C 17.40625 -22.140625 19.503906 -21.316406 21.109375 -19.671875 C 22.710938 -18.035156 23.515625 -15.742188 23.515625 -12.796875 L 23.515625 0 L 18 0 L 18 -12.046875 C 18 -13.785156 17.566406 -15.117188 16.703125 -16.046875 C 15.835938 -16.984375 14.65625 -17.453125 13.15625 -17.453125 C 11.632812 -17.453125 10.429688 -16.984375 9.546875 -16.046875 C 8.671875 -15.117188 8.234375 -13.785156 8.234375 -12.046875 L 8.234375 0 L 2.71875 0 L 2.71875 -21.828125 L 8.234375 -21.828125 L 8.234375 -19.109375 C 8.960938 -20.046875 9.898438 -20.785156 11.046875 -21.328125 C 12.191406 -21.867188 13.445312 -22.140625 14.8125 -22.140625 Z M 14.8125 -22.140625 "/></g></g></g><g fill="#ffffff" fill-opacity="1"><g transform="translate(896.686042, 220.301691)"><g><path d="M 12.40625 0.359375 C 10.300781 0.359375 8.410156 -0.101562 6.734375 -1.03125 C 5.054688 -1.96875 3.738281 -3.289062 2.78125 -5 C 1.820312 -6.707031 1.34375 -8.675781 1.34375 -10.90625 C 1.34375 -13.144531 1.832031 -15.113281 2.8125 -16.8125 C 3.800781 -18.519531 5.148438 -19.835938 6.859375 -20.765625 C 8.566406 -21.703125 10.46875 -22.171875 12.5625 -22.171875 C 14.664062 -22.171875 16.570312 -21.703125 18.28125 -20.765625 C 19.988281 -19.835938 21.332031 -18.519531 22.3125 -16.8125 C 23.300781 -15.113281 23.796875 -13.144531 23.796875 -10.90625 C 23.796875 -8.675781 23.289062 -6.707031 22.28125 -5 C 21.269531 -3.289062 19.898438 -1.96875 18.171875 -1.03125 C 16.453125 -0.101562 14.53125 0.359375 12.40625 0.359375 Z M 12.40625 -4.453125 C 13.40625 -4.453125 14.34375 -4.691406 15.21875 -5.171875 C 16.101562 -5.660156 16.804688 -6.390625 17.328125 -7.359375 C 17.859375 -8.335938 18.125 -9.519531 18.125 -10.90625 C 18.125 -12.976562 17.578125 -14.570312 16.484375 -15.6875 C 15.390625 -16.8125 14.054688 -17.375 12.484375 -17.375 C 10.910156 -17.375 9.59375 -16.8125 8.53125 -15.6875 C 7.46875 -14.570312 6.9375 -12.976562 6.9375 -10.90625 C 6.9375 -8.832031 7.453125 -7.238281 8.484375 -6.125 C 9.523438 -5.007812 10.832031 -4.453125 12.40625 -4.453125 Z M 12.40625 -4.453125 "/></g></g></g><g fill="#ffffff" fill-opacity="1"><g transform="translate(921.809397, 220.301691)"><g><path d="M 11.8125 -5.078125 L 17.328125 -21.828125 L 23.203125 -21.828125 L 15.125 0 L 8.421875 0 L 0.390625 -21.828125 L 6.296875 -21.828125 Z M 11.8125 -5.078125 "/></g></g></g><g fill="#ffffff" fill-opacity="1"><g transform="translate(945.396994, 220.301691)"><g><path d="M 1.296875 -10.984375 C 1.296875 -13.191406 1.734375 -15.148438 2.609375 -16.859375 C 3.492188 -18.566406 4.691406 -19.878906 6.203125 -20.796875 C 7.710938 -21.710938 9.398438 -22.171875 11.265625 -22.171875 C 12.890625 -22.171875 14.3125 -21.84375 15.53125 -21.1875 C 16.757812 -20.53125 17.738281 -19.703125 18.46875 -18.703125 L 18.46875 -21.828125 L 24.03125 -21.828125 L 24.03125 0 L 18.46875 0 L 18.46875 -3.1875 C 17.757812 -2.164062 16.78125 -1.316406 15.53125 -0.640625 C 14.289062 0.0234375 12.851562 0.359375 11.21875 0.359375 C 9.382812 0.359375 7.710938 -0.113281 6.203125 -1.0625 C 4.691406 -2.007812 3.492188 -3.34375 2.609375 -5.0625 C 1.734375 -6.78125 1.296875 -8.753906 1.296875 -10.984375 Z M 18.46875 -10.90625 C 18.46875 -12.25 18.207031 -13.398438 17.6875 -14.359375 C 17.164062 -15.316406 16.457031 -16.050781 15.5625 -16.5625 C 14.664062 -17.070312 13.707031 -17.328125 12.6875 -17.328125 C 11.65625 -17.328125 10.707031 -17.078125 9.84375 -16.578125 C 8.976562 -16.078125 8.273438 -15.347656 7.734375 -14.390625 C 7.203125 -13.429688 6.9375 -12.296875 6.9375 -10.984375 C 6.9375 -9.671875 7.203125 -8.519531 7.734375 -7.53125 C 8.273438 -6.550781 8.984375 -5.796875 9.859375 -5.265625 C 10.742188 -4.742188 11.6875 -4.484375 12.6875 -4.484375 C 13.707031 -4.484375 14.664062 -4.738281 15.5625 -5.25 C 16.457031 -5.769531 17.164062 -6.507812 17.6875 -7.46875 C 18.207031 -8.425781 18.46875 -9.570312 18.46875 -10.90625 Z M 18.46875 -10.90625 "/></g></g></g><g fill="#ffffff" fill-opacity="1"><g transform="translate(972.095441, 220.301691)"><g><path d="M 8.234375 -18.625 C 8.941406 -19.675781 9.914062 -20.53125 11.15625 -21.1875 C 12.40625 -21.84375 13.832031 -22.171875 15.4375 -22.171875 C 17.300781 -22.171875 18.988281 -21.710938 20.5 -20.796875 C 22.007812 -19.878906 23.203125 -18.570312 24.078125 -16.875 C 24.960938 -15.1875 25.40625 -13.222656 25.40625 -10.984375 C 25.40625 -8.753906 24.960938 -6.78125 24.078125 -5.0625 C 23.203125 -3.34375 22.007812 -2.007812 20.5 -1.0625 C 18.988281 -0.113281 17.300781 0.359375 15.4375 0.359375 C 13.8125 0.359375 12.382812 0.0351562 11.15625 -0.609375 C 9.9375 -1.253906 8.960938 -2.085938 8.234375 -3.109375 L 8.234375 0 L 2.71875 0 L 2.71875 -29.15625 L 8.234375 -29.15625 Z M 19.78125 -10.984375 C 19.78125 -12.296875 19.507812 -13.429688 18.96875 -14.390625 C 18.425781 -15.347656 17.710938 -16.078125 16.828125 -16.578125 C 15.953125 -17.078125 15.003906 -17.328125 13.984375 -17.328125 C 12.984375 -17.328125 12.039062 -17.070312 11.15625 -16.5625 C 10.28125 -16.050781 9.570312 -15.304688 9.03125 -14.328125 C 8.5 -13.359375 8.234375 -12.21875 8.234375 -10.90625 C 8.234375 -9.59375 8.5 -8.453125 9.03125 -7.484375 C 9.570312 -6.515625 10.28125 -5.769531 11.15625 -5.25 C 12.039062 -4.738281 12.984375 -4.484375 13.984375 -4.484375 C 15.003906 -4.484375 15.953125 -4.742188 16.828125 -5.265625 C 17.710938 -5.796875 18.425781 -6.546875 18.96875 -7.515625 C 19.507812 -8.492188 19.78125 -9.648438 19.78125 -10.984375 Z M 19.78125 -10.984375 "/></g></g></g><g fill="#ffffff" fill-opacity="1"><g transform="translate(998.793888, 220.301691)"><g><path d="M 5.515625 -24.421875 C 4.546875 -24.421875 3.738281 -24.726562 3.09375 -25.34375 C 2.445312 -25.96875 2.125 -26.738281 2.125 -27.65625 C 2.125 -28.570312 2.445312 -29.335938 3.09375 -29.953125 C 3.738281 -30.566406 4.546875 -30.875 5.515625 -30.875 C 6.484375 -30.875 7.289062 -30.566406 7.9375 -29.953125 C 8.582031 -29.335938 8.90625 -28.570312 8.90625 -27.65625 C 8.90625 -26.738281 8.582031 -25.96875 7.9375 -25.34375 C 7.289062 -24.726562 6.484375 -24.421875 5.515625 -24.421875 Z M 8.234375 -21.828125 L 8.234375 0 L 2.71875 0 L 2.71875 -21.828125 Z M 8.234375 -21.828125 "/></g></g></g><g fill="#ffffff" fill-opacity="1"><g transform="translate(1009.741064, 220.301691)"><g><path d="M 8.234375 -29.15625 L 8.234375 0 L 2.71875 0 L 2.71875 -29.15625 Z M 8.234375 -29.15625 "/></g></g></g><g fill="#ffffff" fill-opacity="1"><g transform="translate(1020.688241, 220.301691)"><g><path d="M 23 -11.390625 C 23 -10.597656 22.945312 -9.882812 22.84375 -9.25 L 6.890625 -9.25 C 7.023438 -7.675781 7.578125 -6.441406 8.546875 -5.546875 C 9.515625 -4.660156 10.707031 -4.21875 12.125 -4.21875 C 14.175781 -4.21875 15.632812 -5.097656 16.5 -6.859375 L 22.453125 -6.859375 C 21.816406 -4.753906 20.609375 -3.023438 18.828125 -1.671875 C 17.046875 -0.316406 14.851562 0.359375 12.25 0.359375 C 10.144531 0.359375 8.257812 -0.101562 6.59375 -1.03125 C 4.925781 -1.96875 3.625 -3.289062 2.6875 -5 C 1.757812 -6.707031 1.296875 -8.675781 1.296875 -10.90625 C 1.296875 -13.164062 1.753906 -15.148438 2.671875 -16.859375 C 3.597656 -18.566406 4.882812 -19.878906 6.53125 -20.796875 C 8.1875 -21.710938 10.09375 -22.171875 12.25 -22.171875 C 14.320312 -22.171875 16.175781 -21.722656 17.8125 -20.828125 C 19.457031 -19.941406 20.734375 -18.675781 21.640625 -17.03125 C 22.546875 -15.394531 23 -13.515625 23 -11.390625 Z M 17.296875 -12.953125 C 17.265625 -14.378906 16.75 -15.515625 15.75 -16.359375 C 14.757812 -17.210938 13.539062 -17.640625 12.09375 -17.640625 C 10.726562 -17.640625 9.578125 -17.226562 8.640625 -16.40625 C 7.710938 -15.582031 7.144531 -14.429688 6.9375 -12.953125 Z M 17.296875 -12.953125 "/></g></g></g></svg>